{
  "asset": {
    "generator": "gltfeditor.com",
    "version": "2.0"
  },
  "buffers": [
    {
      "uri": "data:application/octet-stream;base64,",
      "byteLength": 211320
    }
  ],
  "bufferViews": [
    {
      "buffer": 0,
      "byteOffset": 0,
      "byteLength": 52368,
      "byteStride": 16,
      "target": 34962
    },
    {
      "buffer": 0,
      "byteOffset": 52368,
      "byteLength": 78552,
      "byteStride": 24,
      "target": 34962
    },
    {
      "buffer": 0,
      "byteOffset": 130920,
      "byteLength": 52368,
      "byteStride": 16,
      "target": 34962
    },
    {
      "buffer": 0,
      "byteOffset": 183288,
      "byteLength": 28032,
      "target": 34963
    }
  ],
  "accessors": [
    {
      "bufferView": 0,
      "byteOffset": 0,
      "componentType": 5123,
      "normalized": false,
      "count": 3273,
      "min": [
        0,
        0,
        0,
        0
      ],
      "max": [
        18,
        18,
        18,
        18
      ],
      "type": "VEC4"
    },
    {
      "bufferView": 0,
      "byteOffset": 8,
      "componentType": 5126,
      "normalized": false,
      "count": 3273,
      "min": [
        0.014079390093684196,
        0.008445978164672852
      ],
      "max": [
        0.990805983543396,
        0.9880298972129822
      ],
      "type": "VEC2"
    },
    {
      "bufferView": 1,
      "byteOffset": 0,
      "componentType": 5126,
      "normalized": false,
      "count": 3273,
      "min": [
        -1,
        -0.9999808073043823,
        -1
      ],
      "max": [
        1,
        0.9999808073043823,
        0.9944415092468262
      ],
      "type": "VEC3"
    },
    {
      "bufferView": 1,
      "byteOffset": 12,
      "componentType": 5126,
      "normalized": false,
      "count": 3273,
      "min": [
        -0.13100001215934753,
        -0.5691370964050293,
        0
      ],
      "max": [
        0.1809539943933487,
        0.569136917591095,
        1.5065499544143677
      ],
      "type": "VEC3"
    },
    {
      "bufferView": 2,
      "byteOffset": 0,
      "componentType": 5126,
      "normalized": false,
      "count": 3273,
      "min": [
        0.010080089792609215,
        0,
        0,
        0
      ],
      "max": [
        1,
        0.989919900894165,
        0.9510763883590698,
        0.9196179509162903
      ],
      "type": "VEC4"
    },
    {
      "bufferView": 3,
      "byteOffset": 0,
      "componentType": 5123,
      "normalized": false,
      "count": 14016,
      "min": [
        0
      ],
      "max": [
        3272
      ],
      "type": "SCALAR"
    }
  ],
  "scene": 0,
  "scenes": [
    {
      "nodes": [
        21
      ],
      "name": "CesiumMan"
    }
  ],
  "nodes": [
    {
      "name": "Skeleton_neck_joint_2",
      "matrix": [
        -0.988979697227478,
        -0.12523245811462402,
        -0.07897280156612396,
        0,
        -0.12502025067806244,
        0.9921246767044067,
        -0.00764498021453619,
        0,
        0.07930830866098404,
        0.0023124718572944403,
        -0.9968482851982117,
        0,
        -0.052039917558431625,
        -1.0138237804824257e-8,
        -0.000002613844799270737,
        1
      ]
    },
    {
      "name": "Skeleton_neck_joint_1",
      "children": [
        0
      ],
      "matrix": [
        0.19102832674980164,
        0.06937197595834732,
        -0.9791300296783447,
        0,
        -0.013130313716828823,
        0.9975907206535339,
        0.06811819970607758,
        0,
        0.9814966320991516,
        -0.00015622183855157346,
        0.19147898256778717,
        0,
        -0.0000024735900296946056,
        0.0000024202877284551505,
        0.0648384541273117,
        1
      ]
    },
    {
      "name": "Skeleton_arm_joint_L__2_",
      "matrix": [
        0.9902418255805969,
        -0.12551827728748322,
        -0.06055750325322151,
        0,
        0.12145935744047165,
        0.990358829498291,
        -0.06661424785852432,
        0,
        0.06833492964506149,
        0.05860891565680504,
        0.9959396719932556,
        0,
        -0.0933246836066246,
        0.14300000667572021,
        0.07814779877662659,
        1
      ]
    },
    {
      "name": "Skeleton_arm_joint_L__3_",
      "children": [
        2
      ],
      "matrix": [
        0.9220833778381348,
        -0.23128969967365265,
        -0.3102688193321228,
        0,
        0.24737896025180817,
        0.9688316583633423,
        0.01296694204211235,
        0,
        0.2975992262363434,
        -0.08871062099933624,
        0.9505600333213806,
        0,
        0.013221794739365578,
        0.215499609708786,
        0.10933230072259903,
        1
      ]
    },
    {
      "name": "Skeleton_arm_joint_L__4_",
      "children": [
        3
      ],
      "matrix": [
        -0.5459728837013245,
        0.22476491332054138,
        -0.8070906400680542,
        0,
        0.7140617370605469,
        0.6287139058113098,
        -0.307952344417572,
        0,
        0.4382120966911316,
        -0.7444458603858948,
        -0.5037566423416138,
        0,
        -0.000037561796489171684,
        0.08800013363361359,
        -0.000059014095313614234,
        1
      ]
    },
    {
      "name": "Skeleton_arm_joint_R__3_",
      "matrix": [
        0.7897433042526245,
        -0.008378002792596817,
        0.6133801341056824,
        0,
        0.21931375563144684,
        0.9376761317253113,
        -0.26956483721733093,
        0,
        -0.572893500328064,
        0.34740975499153137,
        0.7423608899116516,
        0,
        0.0313703678548336,
        -0.14300091564655304,
        -0.11761169880628586,
        1
      ]
    },
    {
      "name": "Skeleton_arm_joint_R__2_",
      "children": [
        5
      ],
      "matrix": [
        -0.7089183926582336,
        -0.1922243982553482,
        -0.6785908341407776,
        0,
        -0.11159560084342957,
        0.9805939793586731,
        -0.16118982434272766,
        0,
        0.6964064240455627,
        -0.038542650640010834,
        -0.7166122198104858,
        0,
        -0.035546328872442245,
        -0.2154989242553711,
        0.10423310101032257,
        1
      ]
    },
    {
      "name": "Skeleton_arm_joint_R",
      "children": [
        6
      ],
      "matrix": [
        -0.7911582589149475,
        0.1431235820055008,
        0.594629168510437,
        0,
        0.5157839059829712,
        0.678622305393219,
        0.5229138731956482,
        0,
        -0.32868731021881104,
        0.7204078435897827,
        -0.6107184886932373,
        0,
        -0.00003912318788934499,
        -0.08800002932548523,
        -0.000059415109717519954,
        1
      ]
    },
    {
      "name": "torso_joint_3",
      "children": [
        1,
        4,
        7
      ],
      "matrix": [
        0.20994392037391663,
        0.013079406693577766,
        0.9776269197463989,
        0,
        -0.026534637436270714,
        0.9996185302734375,
        -0.007675350643694401,
        0,
        -0.9773532748222351,
        -0.024329550564289093,
        0.2102106660604477,
        0,
        -0.25051677227020264,
        5.799931273031689e-7,
        -0.0000728284430806525,
        1
      ]
    },
    {
      "name": "Skeleton_torso_joint_2",
      "children": [
        8
      ],
      "matrix": [
        -0.06625355780124664,
        0.009878271259367466,
        -0.9977537393569946,
        0,
        -0.009445668198168278,
        0.999900221824646,
        0.010526739992201328,
        0,
        0.9977570176124573,
        0.010121879167854786,
        -0.06615356355905533,
        0,
        0.000013468614270095713,
        0.0009866023901849985,
        0.14541691541671753,
        1
      ]
    },
    {
      "name": "leg_joint_L_5",
      "matrix": [
        0.6206039190292358,
        0.047590043395757675,
        0.7826794981956482,
        0,
        -0.019853830337524414,
        0.9987900853157043,
        -0.044987890869379044,
        0,
        -0.7838730812072754,
        0.012380470521748066,
        0.6207975745201111,
        0,
        -0.06558382511138916,
        0.0010905907256528735,
        0.02929132990539074,
        1
      ]
    },
    {
      "name": "leg_joint_L_3",
      "children": [
        10
      ],
      "matrix": [
        -0.9415282011032104,
        -0.009493472054600716,
        -0.3368033766746521,
        0,
        -0.0015501559246331453,
        0.999715268611908,
        -0.02384553663432598,
        0,
        0.33693358302116394,
        -0.021929113194346428,
        -0.9412740468978882,
        0,
        0.27578991651535034,
        0.0013972605811432004,
        0.0041224476881325245,
        1
      ]
    },
    {
      "name": "leg_joint_L_2",
      "children": [
        11
      ],
      "matrix": [
        0.37679269909858704,
        0.015278920531272888,
        -0.9261712431907654,
        0,
        -0.015692928805947304,
        0.999825119972229,
        0.010109649039804935,
        0,
        0.9261643886566162,
        0.010725107975304127,
        0.37696683406829834,
        0,
        0.2091640830039978,
        0.009055480360984802,
        -0.16426979005336761,
        1
      ]
    },
    {
      "name": "leg_joint_L_1",
      "children": [
        12
      ],
      "matrix": [
        0.19750699400901794,
        0.026425765827298164,
        -0.9799453020095825,
        0,
        -0.033245548605918884,
        0.99924236536026,
        0.02024553343653679,
        0,
        0.9797377586364746,
        0.02858017571270466,
        0.1982358694076538,
        0,
        0.028520088642835617,
        0.06762180477380753,
        -0.06295997649431229,
        1
      ]
    },
    {
      "name": "leg_joint_R_5",
      "matrix": [
        0.7317056655883789,
        -0.03091317228972912,
        0.6809192895889282,
        0,
        0.03229250758886337,
        0.9994210004806519,
        0.010671843774616718,
        0,
        -0.6808546781539917,
        0.014179942198097706,
        0.7322799563407898,
        0,
        -0.0668196976184845,
        -0.001072172774001956,
        0.02635134570300579,
        1
      ]
    },
    {
      "name": "leg_joint_R_3",
      "children": [
        14
      ],
      "matrix": [
        -0.6466590166091919,
        0.022475693374872208,
        -0.7624474763870239,
        0,
        -0.013866058550775051,
        0.9990537762641907,
        0.041210755705833435,
        0,
        0.7626528143882751,
        0.037221480160951614,
        -0.6457359194755554,
        0,
        0.27546030282974243,
        -0.001431724289432168,
        -0.014104814268648624,
        1
      ]
    },
    {
      "name": "leg_joint_R_2",
      "children": [
        15
      ],
      "matrix": [
        0.997433602809906,
        -0.01817953772842884,
        -0.06925427913665771,
        0,
        0.01700652949512005,
        0.9997027516365051,
        -0.017489882186055183,
        0,
        0.06955159455537796,
        0.016267208382487297,
        0.9974455237388611,
        0,
        0.26089081168174744,
        -0.009026044979691505,
        0.051670871675014496,
        1
      ]
    },
    {
      "name": "leg_joint_R_1",
      "children": [
        16
      ],
      "matrix": [
        0.4038374722003937,
        -0.015389728359878063,
        -0.9147013425827026,
        0,
        -0.011016245000064373,
        0.9997045397758484,
        -0.021683532744646072,
        0,
        0.9147647023200989,
        0.01883319579064846,
        0.40354856848716736,
        0,
        0.028557205572724342,
        -0.06845434010028839,
        -0.06295862793922424,
        1
      ]
    },
    {
      "name": "Skeleton_torso_joint_1",
      "children": [
        9,
        13,
        17
      ],
      "matrix": [
        0.9956212043762207,
        0.003355802036821842,
        -0.09342038631439209,
        0,
        -0.0025139213539659977,
        0.9999551773071289,
        0.009127967059612274,
        0,
        0.09344682097434998,
        -0.008853144943714142,
        0.9955849051475525,
        0,
        1.6422132986804172e-8,
        -0.02450386807322502,
        0.6450001001358032,
        1
      ]
    },
    {
      "name": "Cesium_Man",
      "mesh": 0
    },
    {
      "name": "Armature",
      "children": [
        18,
        19
      ],
      "matrix": [
        3.422854177870249e-8,
        -0.9999999403953552,
        0,
        0,
        0.9999999403953552,
        3.422854177870249e-8,
        0,
        0,
        0,
        0,
        1,
        0,
        0,
        0,
        0,
        1
      ]
    },
    {
      "name": "Z_UP",
      "children": [
        20
      ],
      "matrix": [
        1,
        0,
        0,
        0,
        0,
        3.422854177870249e-8,
        -0.9999999403953552,
        0,
        0,
        0.9999999403953552,
        3.422854177870249e-8,
        0,
        0,
        0,
        0,
        1
      ]
    }
  ],
  "meshes": [
    {
      "primitives": [
        {
          "material": 0,
          "mode": 4,
          "attributes": {
            "JOINTS_0": 0,
            "TEXCOORD_0": 1,
            "NORMAL": 2,
            "POSITION": 3,
            "WEIGHTS_0": 4
          },
          "indices": 5
        }
      ]
    }
  ],
  "materials": [
    {
      "pbrMetallicRoughness": {
        "baseColorFactor": [
          1,
          1,
          1,
          1
        ],
        "metallicFactor": 0,
        "roughnessFactor": 1,
        "baseColorTexture": {
          "index": 0,
          "texCoord": 0
        }
      },
      "emissiveFactor": [
        0,
        0,
        0
      ],
      "alphaMode": "OPAQUE",
      "doubleSided": false
    }
  ],
  "textures": [
    {
      "sampler": 0,
      "source": 0
    }
  ],
  "samplers": [
    {
      "magFilter": 9729,
      "minFilter": 9986,
      "wrapS": 10497,
      "wrapT": 10497
    }
  ],
  "images": [
    {
      "uri": "data:image/png;base64,",
      "mimeType": "image/png"
    }
  ],
  "extensionsUsed": [
    "KHR_mesh_quantization"
  ],
  "extensionsRequired": [
    "KHR_mesh_quantization"
  ]
}